<svg width="1440" height="615" viewBox="0 0 1440 615" fill="none" xmlns="http://www.w3.org/2000/svg">
<path d="M509.984 553L7 411.252V3H1440V103.971L509.984 553Z" fill="url(#paint0_linear)" stroke="#1B2478" stroke-width="5"/>
<path d="M507.175 447L7 332.571V3H1432V84.511L507.175 447Z" fill="#BCBCBC" stroke="#1B2478" stroke-width="5"/>
<g filter="url(#filter0_d)">
<path d="M38.7966 259H56.933L68.7966 220H69.3421L81.2057 259H99.3421L119.933 189.182H98.7966L89.2512 232.273H88.7057L77.3875 189.182H60.7512L49.433 232.136H48.8875L39.3421 189.182H18.2057L38.7966 259ZM142.339 259.955C156.862 259.955 166.203 253 167.976 242.091H150.794C149.703 245.057 146.601 246.727 142.748 246.727C137.157 246.727 133.885 243.045 133.885 238V237.182H167.976V232.818C167.976 216.148 157.748 205.955 141.93 205.955C125.703 205.955 115.339 216.727 115.339 232.955C115.339 249.898 125.566 259.955 142.339 259.955ZM133.885 226.818C133.987 222.284 137.737 219.182 142.339 219.182C147.01 219.182 150.555 222.318 150.657 226.818H133.885ZM203.37 259.818C210.189 259.818 215.336 257.5 218.507 251.636H218.916V259H236.507V223.136C236.507 213.455 227.336 205.955 212.37 205.955C196.723 205.955 189.018 214.136 188.37 223.682H205.689C206.132 220.443 208.518 218.909 212.098 218.909C215.37 218.909 217.689 220.409 217.689 223.136V223.273C217.689 226.307 214.348 227.261 205.552 227.909C194.745 228.693 186.325 233.057 186.325 244.545C186.325 254.977 193.348 259.818 203.37 259.818ZM209.507 247.955C206.302 247.955 204.052 246.386 204.052 243.455C204.052 240.761 205.961 238.682 210.325 238C213.325 237.523 215.848 236.909 217.825 236.091V240.455C217.825 245.227 213.768 247.955 209.507 247.955ZM242.498 259H261.316V231.727C261.316 225.727 265.441 221.773 270.998 221.773C272.941 221.773 276.078 222.08 277.953 222.727V206.67C276.453 206.227 274.816 205.955 273.18 205.955C267.589 205.955 263.226 209.227 261.316 216.591H260.771V206.636H242.498V259ZM303.214 259.955C317.737 259.955 327.078 253 328.851 242.091H311.669C310.578 245.057 307.476 246.727 303.623 246.727C298.032 246.727 294.76 243.045 294.76 238V237.182H328.851V232.818C328.851 216.148 318.623 205.955 302.805 205.955C286.578 205.955 276.214 216.727 276.214 232.955C276.214 249.898 286.441 259.955 303.214 259.955ZM294.76 226.818C294.862 222.284 298.612 219.182 303.214 219.182C307.885 219.182 311.43 222.318 311.532 226.818H294.76ZM380.882 206.636H371.882V194.091H353.064V206.636H346.382V220.273H353.064V243.932C352.927 254.909 359.711 260.466 372.7 259.75C376.961 259.511 380.132 258.625 381.836 258.114L379.109 244.886C378.393 245.057 376.552 245.432 375.427 245.432C372.973 245.432 371.882 244.341 371.882 242.159V220.273H380.882V206.636ZM405.504 229.545C405.538 224.364 408.538 221.227 413.14 221.227C417.947 221.227 420.674 224.364 420.64 229.545V259H439.459V225.591C439.493 214.136 432.265 205.955 421.186 205.955C413.447 205.955 407.72 209.909 405.368 216.591H404.822V189.182H386.686V259H405.504V229.545ZM470.839 259.955C485.362 259.955 494.703 253 496.476 242.091H479.294C478.203 245.057 475.101 246.727 471.248 246.727C465.657 246.727 462.385 243.045 462.385 238V237.182H496.476V232.818C496.476 216.148 486.248 205.955 470.43 205.955C454.203 205.955 443.839 216.727 443.839 232.955C443.839 249.898 454.066 259.955 470.839 259.955ZM462.385 226.818C462.487 222.284 466.237 219.182 470.839 219.182C475.51 219.182 479.055 222.318 479.157 226.818H462.385Z" fill="#FEFEFE"/>
<path d="M246.201 363H265.02V310.636H246.201V363ZM255.611 305.182C260.724 305.182 264.883 301.33 264.883 296.591C264.883 291.852 260.724 288 255.611 288C250.497 288 246.338 291.852 246.338 296.591C246.338 301.33 250.497 305.182 255.611 305.182ZM290.426 333.545C290.46 328.364 293.392 325.227 298.062 325.227C302.801 325.227 305.596 328.364 305.562 333.545V363H324.38V329.591C324.415 318.205 317.221 309.955 306.108 309.955C298.403 309.955 292.301 313.977 290.017 320.591H289.471V310.636H271.608V363H290.426V333.545ZM378.022 310.636H369.022V298.091H350.204V310.636H343.522V324.273H350.204V347.932C350.068 358.909 356.852 364.466 369.841 363.75C374.102 363.511 377.272 362.625 378.977 362.114L376.25 348.886C375.534 349.057 373.693 349.432 372.568 349.432C370.113 349.432 369.022 348.341 369.022 346.159V324.273H378.022V310.636ZM402.645 333.545C402.679 328.364 405.679 325.227 410.281 325.227C415.088 325.227 417.815 328.364 417.781 333.545V363H436.599V329.591C436.633 318.136 429.406 309.955 418.326 309.955C410.588 309.955 404.861 313.909 402.508 320.591H401.963V293.182H383.826V363H402.645V333.545ZM467.98 363.955C482.503 363.955 491.843 357 493.616 346.091H476.434C475.343 349.057 472.241 350.727 468.389 350.727C462.798 350.727 459.525 347.045 459.525 342V341.182H493.616V336.818C493.616 320.148 483.389 309.955 467.571 309.955C451.343 309.955 440.98 320.727 440.98 336.955C440.98 353.898 451.207 363.955 467.98 363.955ZM459.525 330.818C459.628 326.284 463.378 323.182 467.98 323.182C472.65 323.182 476.196 326.318 476.298 330.818H459.525Z" fill="#798F96"/>
<path d="M23.9287 363H56.7923C71.9628 363 81.3378 354.716 81.3378 343.227C81.3378 333.375 74.0764 326.932 65.1105 326.591V325.909C73.1901 324.307 78.6105 318.341 78.6105 310.636C78.6105 300 70.156 293.182 54.2014 293.182H23.9287V363ZM42.8833 347.864V333.136H52.0196C57.781 333.136 61.2923 335.864 61.2923 340.773C61.2923 345.443 58.1219 347.864 51.7469 347.864H42.8833ZM42.8833 321.409V308.045H50.9287C55.6333 308.045 59.1105 310.432 59.1105 314.727C59.1105 319.023 55.6333 321.409 50.656 321.409H42.8833ZM110.417 363.955C124.94 363.955 134.281 357 136.054 346.091H118.872C117.781 349.057 114.679 350.727 110.826 350.727C105.236 350.727 101.963 347.045 101.963 342V341.182H136.054V336.818C136.054 320.148 125.826 309.955 110.008 309.955C93.781 309.955 83.4173 320.727 83.4173 336.955C83.4173 353.898 93.6446 363.955 110.417 363.955ZM101.963 330.818C102.065 326.284 105.815 323.182 110.417 323.182C115.088 323.182 118.633 326.318 118.736 330.818H101.963ZM188.596 327.682C188.119 316.602 178.915 309.955 163.778 309.955C148.812 309.955 139.574 316.091 139.642 327C139.574 335.25 144.926 340.534 155.596 342.409L164.869 344.045C168.96 344.795 170.801 345.886 170.869 347.864C170.801 350.045 168.312 351.273 164.869 351.273C160.608 351.273 157.608 349.432 157.096 346.091H138.415C139.437 356.83 148.71 363.955 164.733 363.955C179.221 363.955 189.892 356.898 189.96 345.682C189.892 337.943 184.71 333.443 174.005 331.5L163.369 329.591C159.38 328.875 158.255 327.443 158.324 325.909C158.255 323.727 160.949 322.5 164.187 322.5C167.903 322.5 171.005 324.477 171.278 327.682H188.596ZM225.397 310.636H216.397V298.091H197.579V310.636H190.897V324.273H197.579V347.932C197.443 358.909 204.227 364.466 217.216 363.75C221.477 363.511 224.647 362.625 226.352 362.114L223.625 348.886C222.909 349.057 221.068 349.432 219.943 349.432C217.488 349.432 216.397 348.341 216.397 346.159V324.273H225.397V310.636Z" fill="white"/>
<path d="M67.5608 467H86.379V414.636H67.5608V467ZM76.9699 409.182C82.0835 409.182 86.2426 405.33 86.2426 400.591C86.2426 395.852 82.0835 392 76.9699 392C71.8563 392 67.6972 395.852 67.6972 400.591C67.6972 405.33 71.8563 409.182 76.9699 409.182ZM111.785 437.545C111.819 432.364 114.751 429.227 119.422 429.227C124.16 429.227 126.956 432.364 126.922 437.545V467H145.74V433.591C145.774 422.205 138.581 413.955 127.467 413.955C119.763 413.955 113.66 417.977 111.376 424.591H110.831V414.636H92.9671V467H111.785V437.545ZM170.984 467.682C178.348 467.682 183.393 463.727 185.575 458.409H185.984V467H204.666V397.182H185.848V423.773H185.575C183.53 418.455 178.62 413.955 170.848 413.955C160.484 413.955 150.393 421.864 150.393 440.818C150.393 458.955 159.802 467.682 170.984 467.682ZM177.939 453.227C172.757 453.227 169.757 448.591 169.757 440.818C169.757 433.045 172.757 428.409 177.939 428.409C183.12 428.409 186.257 433.045 186.257 440.818C186.257 448.455 183.12 453.227 177.939 453.227ZM244.859 444.091C244.893 449.273 241.893 452.409 237.223 452.409C232.484 452.409 229.757 449.273 229.723 444.091V414.636H210.905V448.045C210.939 459.5 218.166 467.682 229.177 467.682C236.984 467.682 242.984 463.727 245.268 457.045H245.814V467H263.677V414.636H244.859V444.091ZM318.112 431.682C317.635 420.602 308.43 413.955 293.294 413.955C278.328 413.955 269.089 420.091 269.157 431C269.089 439.25 274.441 444.534 285.112 446.409L294.385 448.045C298.476 448.795 300.316 449.886 300.385 451.864C300.316 454.045 297.828 455.273 294.385 455.273C290.123 455.273 287.123 453.432 286.612 450.091H267.93C268.953 460.83 278.226 467.955 294.248 467.955C308.737 467.955 319.407 460.898 319.476 449.682C319.407 441.943 314.226 437.443 303.521 435.5L292.885 433.591C288.896 432.875 287.771 431.443 287.839 429.909C287.771 427.727 290.464 426.5 293.703 426.5C297.419 426.5 300.521 428.477 300.794 431.682H318.112ZM354.913 414.636H345.913V402.091H327.095V414.636H320.413V428.273H327.095V451.932C326.959 462.909 333.743 468.466 346.731 467.75C350.993 467.511 354.163 466.625 355.868 466.114L353.14 452.886C352.424 453.057 350.584 453.432 349.459 453.432C347.004 453.432 345.913 452.341 345.913 450.159V428.273H354.913V414.636ZM359.592 467H378.41V439.727C378.41 433.727 382.535 429.773 388.092 429.773C390.035 429.773 393.172 430.08 395.047 430.727V414.67C393.547 414.227 391.91 413.955 390.274 413.955C384.683 413.955 380.319 417.227 378.41 424.591H377.865V414.636H359.592V467ZM411.265 486.636C424.424 486.636 430.595 480.023 433.493 471.364L452.584 414.636H432.811L424.22 450.909H423.674L415.22 414.636H395.584L413.993 469.318L413.584 470.273C412.322 473.17 408.674 473.068 404.038 471.432L399.947 484.795C402.879 485.955 406.936 486.636 411.265 486.636Z" fill="#6D6D6D"/>
</g>
<defs>
<filter id="filter0_d" x="18.2057" y="189.182" width="478.27" height="301.455" filterUnits="userSpaceOnUse" color-interpolation-filters="sRGB">
<feFlood flood-opacity="0" result="BackgroundImageFix"/>
<feColorMatrix in="SourceAlpha" type="matrix" values="0 0 0 0 0 0 0 0 0 0 0 0 0 0 0 0 0 0 127 0"/>
<feOffset dy="4"/>
<feColorMatrix type="matrix" values="0 0 0 0 1 0 0 0 0 1 0 0 0 0 1 0 0 0 1 0"/>
<feBlend mode="normal" in2="BackgroundImageFix" result="effect1_dropShadow"/>
<feBlend mode="normal" in="SourceGraphic" in2="effect1_dropShadow" result="shape"/>
</filter>
<linearGradient id="paint0_linear" x1="723.5" y1="3" x2="723.5" y2="553" gradientUnits="userSpaceOnUse">
<stop stop-color="#0B87FF"/>
<stop offset="0.46875" stop-opacity="0.563322"/>
<stop offset="0.59375" stop-opacity="0.252003"/>
<stop offset="0.734375" stop-color="#085DE1" stop-opacity="0.11859"/>
<stop offset="0.8749" stop-color="#1663AD" stop-opacity="0.385417"/>
<stop offset="1" stop-color="#118AFF" stop-opacity="0"/>
</linearGradient>
</defs>
</svg>
