<svg width="1436" height="618" viewBox="0 0 1436 618" fill="none" xmlns="http://www.w3.org/2000/svg">
<path d="M505.984 553L3 411.252V3H1436V103.971L505.984 553Z" fill="url(#paint0_linear)" stroke="#1B2478" stroke-width="5"/>
<path d="M503.175 447L3 332.571V3H1428V84.511L503.175 447Z" fill="url(#paint1_linear)" stroke="#1B2478" stroke-width="5"/>
<g filter="url(#filter0_d)">
<path d="M98.8889 262H115.116L127.696 219.659H128.241L140.821 262H157.082L177.366 192.182H158.753L148.184 238.034H147.605L135.571 192.182H120.366L108.332 237.932H107.753L97.2185 192.182H78.5708L98.8889 262ZM199.909 262.989C213.647 262.989 222.682 256.341 224.591 246.045L209.284 245.602C207.988 249.08 204.579 250.955 200.216 250.955C193.807 250.955 189.852 246.693 189.852 240.284V239.841H224.761V235.682C224.761 218.432 214.261 208.955 199.397 208.955C183.579 208.955 173.42 219.795 173.42 236.023C173.42 252.795 183.443 262.989 199.909 262.989ZM189.852 230.159C190.091 224.943 194.216 220.989 199.738 220.989C205.227 220.989 209.182 224.807 209.25 230.159H189.852ZM262.662 262.886C269.957 262.886 275.003 260.057 277.866 254.705H278.275V262H293.957V226.409C293.957 215.33 284.105 208.955 270.775 208.955C256.696 208.955 248.718 216.045 247.389 225.591L262.764 226.136C263.48 222.795 266.241 220.75 270.639 220.75C274.73 220.75 277.321 222.727 277.321 226.239V226.409C277.321 229.614 273.843 230.295 264.912 231.08C254.309 231.966 245.446 235.886 245.446 247.477C245.446 257.841 252.639 262.886 262.662 262.886ZM267.809 251.977C263.957 251.977 261.23 250.136 261.23 246.659C261.23 243.284 263.889 241.239 268.628 240.523C271.73 240.08 275.548 239.398 277.423 238.409V243.386C277.423 248.5 273.128 251.977 267.809 251.977ZM301.15 262H317.821V233.568C317.821 227.33 322.253 223.136 328.218 223.136C330.196 223.136 333.162 223.477 334.764 224.023V209.534C333.366 209.159 331.628 208.92 330.093 208.92C324.366 208.92 319.798 212.261 317.889 219.182H317.343V209.636H301.15V262ZM360.315 262.989C374.054 262.989 383.088 256.341 384.997 246.045L369.69 245.602C368.395 249.08 364.986 250.955 360.622 250.955C354.213 250.955 350.258 246.693 350.258 240.284V239.841H385.167V235.682C385.167 218.432 374.667 208.955 359.804 208.955C343.986 208.955 333.826 219.795 333.826 236.023C333.826 252.795 343.849 262.989 360.315 262.989ZM350.258 230.159C350.497 224.943 354.622 220.989 360.145 220.989C365.633 220.989 369.588 224.807 369.656 230.159H350.258ZM437.863 209.636H428.42V197.091H411.75V209.636H404.829V221.909H411.75V247.375C411.647 257.977 418.534 263.295 430.295 262.75C434.318 262.545 437.216 261.727 438.818 261.25L436.295 249.216C435.579 249.386 433.909 249.727 432.647 249.727C429.954 249.727 428.42 248.636 428.42 245.534V221.909H437.863V209.636ZM461.165 232.136C461.199 226.17 464.744 222.625 470.028 222.625C475.38 222.625 478.483 226.068 478.449 231.898V262H495.119V228.625C495.153 216.761 487.926 208.955 476.915 208.955C469.074 208.955 463.551 212.807 461.199 219.25H460.619V192.182H444.494V262H461.165V232.136ZM527.003 262.989C540.741 262.989 549.775 256.341 551.684 246.045L536.378 245.602C535.082 249.08 531.673 250.955 527.309 250.955C520.9 250.955 516.946 246.693 516.946 240.284V239.841H551.855V235.682C551.855 218.432 541.355 208.955 526.491 208.955C510.673 208.955 500.514 219.795 500.514 236.023C500.514 252.795 510.537 262.989 527.003 262.989ZM516.946 230.159C517.184 224.943 521.309 220.989 526.832 220.989C532.321 220.989 536.275 224.807 536.343 230.159H516.946Z" fill="#FEFEFE"/>
<path d="M305.603 366H322.274V313.636H305.603V366ZM313.956 307.534C318.694 307.534 322.513 303.955 322.513 299.557C322.513 295.159 318.694 291.614 313.956 291.614C309.251 291.614 305.399 295.159 305.399 299.557C305.399 303.955 309.251 307.534 313.956 307.534ZM346.555 336.136C346.589 330.17 350.066 326.625 355.351 326.625C360.635 326.625 363.771 330.102 363.737 335.898V366H380.407V332.625C380.441 320.83 373.248 312.955 362.237 312.955C354.498 312.955 348.635 316.875 346.316 323.25H345.737V313.636H329.885V366H346.555V336.136ZM434.91 313.636H425.467V301.091H408.797V313.636H401.876V325.909H408.797V351.375C408.694 361.977 415.581 367.295 427.342 366.75C431.365 366.545 434.263 365.727 435.865 365.25L433.342 353.216C432.626 353.386 430.956 353.727 429.694 353.727C427.001 353.727 425.467 352.636 425.467 349.534V325.909H434.91V313.636ZM458.211 336.136C458.245 330.17 461.791 326.625 467.075 326.625C472.427 326.625 475.53 330.068 475.495 335.898V366H492.166V332.625C492.2 320.761 484.973 312.955 473.961 312.955C466.12 312.955 460.598 316.807 458.245 323.25H457.666V296.182H441.541V366H458.211V336.136ZM524.049 366.989C537.788 366.989 546.822 360.341 548.731 350.045L533.424 349.602C532.129 353.08 528.72 354.955 524.356 354.955C517.947 354.955 513.993 350.693 513.993 344.284V343.841H548.902V339.682C548.902 322.432 538.402 312.955 523.538 312.955C507.72 312.955 497.561 323.795 497.561 340.023C497.561 356.795 507.584 366.989 524.049 366.989ZM513.993 334.159C514.231 328.943 518.356 324.989 523.879 324.989C529.368 324.989 533.322 328.807 533.39 334.159H513.993Z" fill="#798F96"/>
<path d="M85.1034 366H116.433C131.876 366 140.74 357.75 140.74 346.466C140.74 336.375 133.41 330.034 124.956 329.659V328.977C132.626 327.375 138.013 321.818 138.013 313.841C138.013 303.307 129.899 296.182 114.217 296.182H85.1034V366ZM101.978 352.398V335.761H112.717C119.16 335.761 123.115 339.17 123.115 344.523C123.115 349.466 119.706 352.398 112.41 352.398H101.978ZM101.978 324.886V309.58H111.592C117.217 309.58 120.797 312.477 120.797 317.114C120.797 322.023 116.842 324.886 111.319 324.886H101.978ZM170.331 366.989C184.069 366.989 193.103 360.341 195.013 350.045L179.706 349.602C178.41 353.08 175.001 354.955 170.638 354.955C164.228 354.955 160.274 350.693 160.274 344.284V343.841H195.183V339.682C195.183 322.432 184.683 312.955 169.819 312.955C154.001 312.955 143.842 323.795 143.842 340.023C143.842 356.795 153.865 366.989 170.331 366.989ZM160.274 334.159C160.513 328.943 164.638 324.989 170.16 324.989C175.649 324.989 179.603 328.807 179.672 334.159H160.274ZM246.413 329.625C245.527 319.261 237.038 312.955 222.856 312.955C208.674 312.955 199.64 319.125 199.709 329.625C199.64 337.67 204.788 342.852 215.254 344.795L224.39 346.534C228.72 347.386 230.697 348.75 230.765 351.068C230.697 353.693 227.765 355.432 223.504 355.432C218.765 355.432 215.561 353.386 214.845 349.568L198.379 349.977C199.572 360.341 208.47 366.989 223.436 366.989C237.447 366.989 247.64 360 247.709 349.227C247.64 341.591 242.595 337.057 232.163 335.045L222.072 333.136C217.64 332.25 216.209 330.682 216.243 328.67C216.209 326.011 219.311 324.375 223.163 324.375C227.561 324.375 230.629 326.727 231.106 330.034L246.413 329.625ZM282.473 313.636H273.03V301.091H256.359V313.636H249.439V325.909H256.359V351.375C256.257 361.977 263.143 367.295 274.905 366.75C278.927 366.545 281.825 365.727 283.427 365.25L280.905 353.216C280.189 353.386 278.518 353.727 277.257 353.727C274.564 353.727 273.03 352.636 273.03 349.534V325.909H282.473V313.636Z" fill="white"/>
<path d="M130.244 470H146.915V417.636H130.244V470ZM138.596 411.534C143.335 411.534 147.153 407.955 147.153 403.557C147.153 399.159 143.335 395.614 138.596 395.614C133.892 395.614 130.04 399.159 130.04 403.557C130.04 407.955 133.892 411.534 138.596 411.534ZM171.196 440.136C171.23 434.17 174.707 430.625 179.991 430.625C185.275 430.625 188.412 434.102 188.378 439.898V470H205.048V436.625C205.082 424.83 197.889 416.955 186.878 416.955C179.139 416.955 173.275 420.875 170.957 427.25H170.378V417.636H154.525V470H171.196V440.136ZM231.494 470.75C239.403 470.75 244.108 466.352 246.221 461.511H246.733V470H263.233V400.182H246.562V426.602H246.221C244.244 421.795 239.676 416.955 231.426 416.955C220.483 416.955 210.562 425.375 210.562 443.852C210.562 461.682 219.937 470.75 231.494 470.75ZM237.29 457.761C231.119 457.761 227.676 452.273 227.676 443.818C227.676 435.398 231.085 429.977 237.29 429.977C243.392 429.977 246.937 435.261 246.937 443.818C246.937 452.307 243.358 457.761 237.29 457.761ZM304.559 447.398C304.559 453.5 300.673 456.909 295.73 456.909C290.616 456.909 287.48 453.432 287.446 447.739V417.636H270.775V451.011C270.809 462.841 278.003 470.682 288.775 470.682C296.616 470.682 302.446 466.659 304.764 460.25H305.309V470H321.196V417.636H304.559V447.398ZM374.522 433.625C373.636 423.261 365.147 416.955 350.966 416.955C336.784 416.955 327.75 423.125 327.818 433.625C327.75 441.67 332.897 446.852 343.363 448.795L352.5 450.534C356.829 451.386 358.807 452.75 358.875 455.068C358.807 457.693 355.875 459.432 351.613 459.432C346.875 459.432 343.67 457.386 342.954 453.568L326.488 453.977C327.682 464.341 336.579 470.989 351.545 470.989C365.557 470.989 375.75 464 375.818 453.227C375.75 445.591 370.704 441.057 360.272 439.045L350.182 437.136C345.75 436.25 344.318 434.682 344.352 432.67C344.318 430.011 347.42 428.375 351.272 428.375C355.67 428.375 358.738 430.727 359.216 434.034L374.522 433.625ZM410.582 417.636H401.139V405.091H384.468V417.636H377.548V429.909H384.468V455.375C384.366 465.977 391.253 471.295 403.014 470.75C407.037 470.545 409.934 469.727 411.537 469.25L409.014 457.216C408.298 457.386 406.628 457.727 405.366 457.727C402.673 457.727 401.139 456.636 401.139 453.534V429.909H410.582V417.636ZM416.088 470H432.758V441.568C432.758 435.33 437.19 431.136 443.156 431.136C445.133 431.136 448.099 431.477 449.701 432.023V417.534C448.304 417.159 446.565 416.92 445.031 416.92C439.304 416.92 434.736 420.261 432.826 427.182H432.281V417.636H416.088V470ZM465.281 489.636C477.281 489.636 483.247 483.568 486.145 475.011L505.883 417.67L488.326 417.636L478.542 455H477.997L468.349 417.636H450.895L469.508 471.909L468.861 473.477C467.258 477.398 463.645 477.466 458.736 475.864L455.054 487.966C457.576 488.989 461.292 489.636 465.281 489.636Z" fill="#6D6D6D"/>
</g>
<defs>
<filter id="filter0_d" x="78.5708" y="192.182" width="473.284" height="301.455" filterUnits="userSpaceOnUse" color-interpolation-filters="sRGB">
<feFlood flood-opacity="0" result="BackgroundImageFix"/>
<feColorMatrix in="SourceAlpha" type="matrix" values="0 0 0 0 0 0 0 0 0 0 0 0 0 0 0 0 0 0 127 0"/>
<feOffset dy="4"/>
<feColorMatrix type="matrix" values="0 0 0 0 1 0 0 0 0 1 0 0 0 0 1 0 0 0 1 0"/>
<feBlend mode="normal" in2="BackgroundImageFix" result="effect1_dropShadow"/>
<feBlend mode="normal" in="SourceGraphic" in2="effect1_dropShadow" result="shape"/>
</filter>
<linearGradient id="paint0_linear" x1="719.5" y1="3" x2="719.5" y2="553" gradientUnits="userSpaceOnUse">
<stop stop-color="#346594"/>
<stop offset="0.34375" stop-opacity="0.563322"/>
<stop offset="0.59375" stop-opacity="0.252003"/>
<stop offset="0.734375" stop-color="#172A47" stop-opacity="0.11859"/>
<stop offset="0.8749" stop-color="white" stop-opacity="0.385417"/>
<stop offset="1" stop-opacity="0"/>
</linearGradient>
<linearGradient id="paint1_linear" x1="715.5" y1="3" x2="715.5" y2="447" gradientUnits="userSpaceOnUse">
<stop stop-color="#346594"/>
<stop offset="0.34375" stop-opacity="0.563322"/>
<stop offset="0.59375" stop-opacity="0.252003"/>
<stop offset="0.734375" stop-color="#172A47" stop-opacity="0.11859"/>
<stop offset="0.8749" stop-color="white" stop-opacity="0.385417"/>
<stop offset="1" stop-opacity="0"/>
</linearGradient>
</defs>
</svg>
