<svg width="1693" height="442" viewBox="0 0 1693 442" fill="none" xmlns="http://www.w3.org/2000/svg">
<circle cx="261.92" cy="222.524" r="3.52358" transform="rotate(90 261.92 222.524)" fill="#70C217"/>
<circle cx="261.92" cy="274.203" r="3.52358" transform="rotate(90 261.92 274.203)" fill="#70C217"/>
<circle cx="261.92" cy="325.882" r="3.52358" transform="rotate(90 261.92 325.882)" fill="#70C217"/>
<circle cx="261.92" cy="377.561" r="3.52358" transform="rotate(90 261.92 377.561)" fill="#70C217"/>
<circle cx="210.241" cy="222.524" r="3.52358" transform="rotate(90 210.241 222.524)" fill="#70C217"/>
<circle cx="210.241" cy="274.203" r="3.52358" transform="rotate(90 210.241 274.203)" fill="#70C217"/>
<circle cx="210.241" cy="325.882" r="3.52358" transform="rotate(90 210.241 325.882)" fill="#70C217"/>
<circle cx="210.241" cy="377.561" r="3.52358" transform="rotate(90 210.241 377.561)" fill="#70C217"/>
<circle cx="158.561" cy="222.524" r="3.52358" transform="rotate(90 158.561 222.524)" fill="#70C217"/>
<circle cx="158.561" cy="274.203" r="3.52358" transform="rotate(90 158.561 274.203)" fill="#70C217"/>
<circle cx="158.561" cy="325.882" r="3.52358" transform="rotate(90 158.561 325.882)" fill="#70C217"/>
<circle cx="158.561" cy="377.561" r="3.52358" transform="rotate(90 158.561 377.561)" fill="#70C217"/>
<circle cx="106.882" cy="222.524" r="3.52358" transform="rotate(90 106.882 222.524)" fill="#70C217"/>
<circle cx="106.882" cy="274.203" r="3.52358" transform="rotate(90 106.882 274.203)" fill="#70C217"/>
<circle cx="106.882" cy="325.882" r="3.52358" transform="rotate(90 106.882 325.882)" fill="#70C217"/>
<circle cx="106.882" cy="377.561" r="3.52358" transform="rotate(90 106.882 377.561)" fill="#70C217"/>
<circle cx="55.203" cy="222.524" r="3.52358" transform="rotate(90 55.203 222.524)" fill="#70C217"/>
<circle cx="55.203" cy="274.203" r="3.52358" transform="rotate(90 55.203 274.203)" fill="#70C217"/>
<circle cx="55.203" cy="325.882" r="3.52358" transform="rotate(90 55.203 325.882)" fill="#70C217"/>
<circle cx="55.203" cy="377.561" r="3.52358" transform="rotate(90 55.203 377.561)" fill="#70C217"/>
<circle cx="3.52378" cy="222.524" r="3.52358" transform="rotate(90 3.52378 222.524)" fill="#70C217"/>
<circle cx="3.52378" cy="274.203" r="3.52358" transform="rotate(90 3.52378 274.203)" fill="#70C217"/>
<circle cx="3.52378" cy="325.882" r="3.52358" transform="rotate(90 3.52378 325.882)" fill="#70C217"/>
<circle cx="3.52378" cy="377.561" r="3.52358" transform="rotate(90 3.52378 377.561)" fill="#70C217"/>
<circle cx="54.8681" cy="71.8677" r="28.0887" transform="rotate(16.0891 54.8681 71.8677)" stroke="#FFBA49" stroke-width="5"/>
<circle cx="1552.5" cy="21.5" r="19" stroke="#FFBA49" stroke-width="5"/>
<circle cx="1689.44" cy="113.722" r="3.52358" transform="rotate(90 1689.44 113.722)" fill="#EF4358"/>
<circle cx="1689.44" cy="165.401" r="3.52358" transform="rotate(90 1689.44 165.401)" fill="#EF4358"/>
<circle cx="1689.44" cy="217.08" r="3.52358" transform="rotate(90 1689.44 217.08)" fill="#EF4358"/>
<circle cx="1689.44" cy="268.759" r="3.52358" transform="rotate(90 1689.44 268.759)" fill="#EF4358"/>
<circle cx="1689.44" cy="320.438" r="3.52358" transform="rotate(90 1689.44 320.438)" fill="#EF4358"/>
<circle cx="1637.76" cy="113.721" r="3.52358" transform="rotate(90 1637.76 113.721)" fill="#EF4358"/>
<circle cx="1637.76" cy="165.401" r="3.52358" transform="rotate(90 1637.76 165.401)" fill="#EF4358"/>
<circle cx="1637.76" cy="217.08" r="3.52358" transform="rotate(90 1637.76 217.08)" fill="#EF4358"/>
<circle cx="1637.76" cy="268.759" r="3.52358" transform="rotate(90 1637.76 268.759)" fill="#EF4358"/>
<circle cx="1637.76" cy="320.438" r="3.52358" transform="rotate(90 1637.76 320.438)" fill="#EF4358"/>
<circle cx="1586.08" cy="113.721" r="3.52358" transform="rotate(90 1586.08 113.721)" fill="#EF4358"/>
<circle cx="1586.08" cy="165.401" r="3.52358" transform="rotate(90 1586.08 165.401)" fill="#EF4358"/>
<circle cx="1586.08" cy="217.08" r="3.52358" transform="rotate(90 1586.08 217.08)" fill="#EF4358"/>
<circle cx="1586.08" cy="268.759" r="3.52358" transform="rotate(90 1586.08 268.759)" fill="#EF4358"/>
<circle cx="1586.08" cy="320.438" r="3.52358" transform="rotate(90 1586.08 320.438)" fill="#EF4358"/>
<circle cx="1534.4" cy="113.721" r="3.52358" transform="rotate(90 1534.4 113.721)" fill="#EF4358"/>
<circle cx="1534.4" cy="165.401" r="3.52358" transform="rotate(90 1534.4 165.401)" fill="#EF4358"/>
<circle cx="1534.4" cy="217.08" r="3.52358" transform="rotate(90 1534.4 217.08)" fill="#EF4358"/>
<circle cx="1534.4" cy="268.759" r="3.52358" transform="rotate(90 1534.4 268.759)" fill="#EF4358"/>
<circle cx="1534.4" cy="320.438" r="3.52358" transform="rotate(90 1534.4 320.438)" fill="#EF4358"/>
<circle cx="1482.72" cy="113.721" r="3.52358" transform="rotate(90 1482.72 113.721)" fill="#EF4358"/>
<circle cx="1482.72" cy="165.401" r="3.52358" transform="rotate(90 1482.72 165.401)" fill="#EF4358"/>
<circle cx="1482.72" cy="217.08" r="3.52358" transform="rotate(90 1482.72 217.08)" fill="#EF4358"/>
<circle cx="1482.72" cy="268.759" r="3.52358" transform="rotate(90 1482.72 268.759)" fill="#EF4358"/>
<circle cx="1482.72" cy="320.438" r="3.52358" transform="rotate(90 1482.72 320.438)" fill="#EF4358"/>
<circle cx="1431.04" cy="113.721" r="3.52358" transform="rotate(90 1431.04 113.721)" fill="#EF4358"/>
<circle cx="1431.04" cy="165.401" r="3.52358" transform="rotate(90 1431.04 165.401)" fill="#EF4358"/>
<circle cx="1431.04" cy="217.08" r="3.52358" transform="rotate(90 1431.04 217.08)" fill="#EF4358"/>
<circle cx="1431.04" cy="268.759" r="3.52358" transform="rotate(90 1431.04 268.759)" fill="#EF4358"/>
<circle cx="1431.04" cy="320.438" r="3.52358" transform="rotate(90 1431.04 320.438)" fill="#EF4358"/>
<circle cx="1379.36" cy="113.721" r="3.52358" transform="rotate(90 1379.36 113.721)" fill="#EF4358"/>
<circle cx="1379.36" cy="165.401" r="3.52358" transform="rotate(90 1379.36 165.401)" fill="#EF4358"/>
<circle cx="1379.36" cy="217.08" r="3.52358" transform="rotate(90 1379.36 217.08)" fill="#EF4358"/>
<circle cx="1379.36" cy="268.759" r="3.52358" transform="rotate(90 1379.36 268.759)" fill="#EF4358"/>
<circle cx="1379.36" cy="320.438" r="3.52358" transform="rotate(90 1379.36 320.438)" fill="#EF4358"/>
<circle cx="1327.68" cy="165.401" r="3.52358" transform="rotate(90 1327.68 165.401)" fill="#EF4358"/>
<circle cx="1327.68" cy="217.08" r="3.52358" transform="rotate(90 1327.68 217.08)" fill="#EF4358"/>
<circle cx="1327.68" cy="268.759" r="3.52358" transform="rotate(90 1327.68 268.759)" fill="#EF4358"/>
<circle cx="1327.68" cy="320.438" r="3.52358" transform="rotate(90 1327.68 320.438)" fill="#EF4358"/>
<circle cx="1276.01" cy="113.721" r="3.52358" transform="rotate(90 1276.01 113.721)" fill="#EF4358"/>
<circle cx="1276.01" cy="165.401" r="3.52358" transform="rotate(90 1276.01 165.401)" fill="#EF4358"/>
<circle cx="1276.01" cy="217.08" r="3.52358" transform="rotate(90 1276.01 217.08)" fill="#EF4358"/>
<circle cx="1276.01" cy="268.759" r="3.52358" transform="rotate(90 1276.01 268.759)" fill="#EF4358"/>
<circle cx="1276.01" cy="320.438" r="3.52358" transform="rotate(90 1276.01 320.438)" fill="#EF4358"/>
<circle cx="1224.33" cy="113.721" r="3.52358" transform="rotate(90 1224.33 113.721)" fill="#EF4358"/>
<circle cx="1224.33" cy="165.401" r="3.52358" transform="rotate(90 1224.33 165.401)" fill="#EF4358"/>
<circle cx="1224.33" cy="217.08" r="3.52358" transform="rotate(90 1224.33 217.08)" fill="#EF4358"/>
<circle cx="1224.33" cy="268.759" r="3.52358" transform="rotate(90 1224.33 268.759)" fill="#EF4358"/>
<circle cx="1224.33" cy="320.438" r="3.52358" transform="rotate(90 1224.33 320.438)" fill="#EF4358"/>
<g filter="url(#filter0_d)">
<path d="M158 285.044C158 271.407 164.958 258.757 176.913 252.196C244.127 215.312 488.444 98 877 98C1265.56 98 1509.87 215.312 1577.09 252.196C1589.04 258.757 1596 271.407 1596 285.044V331C1596 353.091 1578.09 371 1556 371H198C175.909 371 158 353.091 158 331V285.044Z" fill="#EEEEEE"/>
</g>
<circle cx="128" cy="179" r="14.5" stroke="#FFBA49" stroke-width="5"/>
<defs>
<filter id="filter0_d" x="105.146" y="63.1463" width="1543.71" height="378.707" filterUnits="userSpaceOnUse" color-interpolation-filters="sRGB">
<feFlood flood-opacity="0" result="BackgroundImageFix"/>
<feColorMatrix in="SourceAlpha" type="matrix" values="0 0 0 0 0 0 0 0 0 0 0 0 0 0 0 0 0 0 127 0"/>
<feOffset dy="18"/>
<feGaussianBlur stdDeviation="26.4269"/>
<feColorMatrix type="matrix" values="0 0 0 0 0.845 0 0 0 0 0.892895 0 0 0 0 0.975 0 0 0 0.5 0"/>
<feBlend mode="normal" in2="BackgroundImageFix" result="effect1_dropShadow"/>
<feBlend mode="normal" in="SourceGraphic" in2="effect1_dropShadow" result="shape"/>
</filter>
</defs>
</svg>
