<svg width="660" height="164" viewBox="0 0 660 164" fill="none" xmlns="http://www.w3.org/2000/svg">
<path d="M390.459 1.03305C376.115 3.53487 366.916 9.6822 364.858 18.2599C361.448 32.1271 364.729 44.8506 373.349 50.998C376.887 53.4998 385.313 58.0746 387.886 58.9323C388.787 59.2182 390.524 60.076 391.746 60.7908C399.015 65.1511 398.178 65.0082 423.973 65.0082C445.072 65.0082 447.71 64.8652 447.71 63.8645C447.71 62.4349 441.599 55.2868 439.09 53.8572C431.371 49.3539 426.611 46.9951 415.868 42.0629C400.687 35.1293 399.465 33.9856 399.465 26.6231C399.465 23.9068 399.722 21.405 399.98 20.9761C401.845 18.0454 407.57 16.7588 410.143 18.8317C411.172 19.6895 411.43 20.9046 411.558 26.6946L411.816 33.5567H429.505H447.259L446.873 25.6938C446.552 18.9032 446.294 17.3306 444.686 14.114C442.113 8.82443 437.803 5.89373 428.09 2.82006C419.149 0.103798 400.945 -0.825447 390.459 1.03305Z" fill="#BA3428"/>
<path d="M491.452 0.961617C481.224 2.82011 474.47 5.89378 469.131 11.0404C462.184 17.831 461.219 22.1913 461.219 48.7106V65.0082H480.195H499.171V45.1366C499.171 24.6932 499.557 20.3329 501.487 18.7603C502.966 17.5451 507.534 17.6166 508.949 18.8318C510.879 20.4043 511.393 25.6224 511.393 45.494V65.0082H530.369H549.346V49.4255C549.346 23.9784 547.866 17.1162 540.855 10.6115C537.317 7.32339 535.001 6.03674 528.89 3.74936C518.919 0.175331 502.838 -1.03984 491.452 0.961617Z" fill="#BA3428"/>
<path d="M0 33.5568V65.0082H37.3092C57.8292 65.0082 74.6183 64.8652 74.6183 64.6508C74.6183 64.5078 73.2675 61.0053 71.6593 56.8594L68.7646 49.4254L73.7178 38.4889C76.4195 32.4131 79.1212 26.6946 79.7001 25.6939C80.279 24.6932 81.6299 21.8339 82.6591 19.2606C83.7526 16.6873 85.6181 12.5415 86.9046 9.96817C88.1911 7.39487 89.4133 4.60713 89.6706 3.67788L90.1209 2.10531H72.4312C62.6537 2.10531 54.6772 2.39124 54.6772 2.74864C54.6772 3.32048 52.1042 9.46781 42.5839 31.5553C40.2038 36.9878 38.0811 41.4196 37.8238 41.4196C37.5665 41.4196 37.3092 32.556 37.3092 21.7625V2.10531H18.6546H0V33.5568Z" fill="#BA3428"/>
<path d="M111.992 10.4685C111.22 15.1148 110.126 20.4758 109.676 22.4773C109.162 24.4072 107.425 33.6282 105.817 42.8492C102.279 62.7208 102.407 61.8631 101.957 63.6501C101.571 64.9367 102.086 65.0082 118.489 65.0082H135.471L136.565 57.6457C137.143 53.6428 138.108 48.0673 138.623 45.3511C139.138 42.5633 140.102 37.4882 140.746 33.9142C142.225 25.7654 142.675 26.4087 144.091 38.9178C144.798 45.0651 145.634 51.9273 146.664 59.2898C146.985 61.8631 147.307 64.1504 147.307 64.4364C147.307 64.7938 154.833 65.0082 164.096 65.0082H180.885L180.564 62.2919C180.178 59.3612 178.248 49.6399 176.382 41.4196C175.739 38.4889 174.774 34.1286 174.324 31.7697C173.874 29.4109 172.716 23.7639 171.687 19.2606C170.722 14.7574 169.564 9.03893 169.114 6.53711L168.342 2.10531H140.939H113.471L111.992 10.4685Z" fill="#BA3428"/>
<path d="M196.195 33.5568V65.0082H214.849H233.504V33.5568V2.10531H214.849H196.195V33.5568Z" fill="#BA3428"/>
<path d="M245.082 33.5568V65.0082L263.93 64.8652L282.713 64.6508L282.906 33.3423L283.034 2.10531H264.058H245.082V33.5568Z" fill="#BA3428"/>
<path d="M297.187 33.5568V65.0082H316.485H335.783V33.5568V2.10531H316.485H297.187V33.5568Z" fill="#BA3428"/>
<path d="M562.854 33.5568V65.0082H578.614H594.374V62.8638C594.374 61.6486 594.631 60.7194 594.888 60.7194C595.146 60.7194 595.725 61.6486 596.111 62.8638L596.818 65.0082H622.291H647.765V33.5568V2.10531H632.005H616.245V24.9791C616.245 37.5597 615.987 47.8529 615.73 47.8529C615.473 47.8529 610.648 37.6312 604.988 25.1221L594.695 2.46272L578.807 2.24827L562.854 2.10531V33.5568Z" fill="#BA3428"/>
<path d="M0 74.3007V79.3043H18.6546H37.3092V74.3007V69.297H18.6546H0V74.3007Z" fill="#2466B4"/>
<path d="M40.8475 69.297C41.1691 70.7266 43.7422 77.8747 44.0638 79.3043C45.6719 79.3043 48.8882 79.3043 44.0638 79.3043L45.0915 79.3043H62.2683C72.3032 79.3043 79.4432 79.3042 80.4081 79.3043C80.3437 79.0183 79.2504 76.2306 78.2212 73.7288L76.3558 69.297H58.4731C48.5669 69.297 40.7851 69.0196 40.8475 69.297Z" fill="#2466B4"/>
<path d="M100.735 72.0133C100.542 73.5144 100.22 75.7303 99.9631 76.9455L99.5771 79.3043H141.839H184.102L183.716 77.6603C183.458 76.8025 182.944 74.5866 182.558 72.7281L181.85 69.44H147.95V70.7267H135.407V69.44H101.121L100.735 72.0133Z" fill="#2466B4"/>
<path d="M196.195 74.3007V79.3043H214.849H233.504V74.3007V69.297H214.849H196.195V74.3007Z" fill="#2466B4"/>
<path d="M245.082 74.3007V79.3043H263.737H282.391V74.3007V69.297H263.737H245.082V74.3007Z" fill="#2466B4"/>
<path d="M297.83 74.3007V79.3043H316.484H335.139V74.3007V69.297H316.484H297.83V74.3007Z" fill="#2466B4"/>
<path d="M411.237 71.0126C412.266 72.0133 413.424 74.1577 413.874 75.8733L414.71 78.9469L432.593 79.1614L450.411 79.3043L449.961 75.3014C449.704 73.014 449.382 70.7981 449.189 70.2263C448.932 69.5115 445.072 69.297 429.119 69.297H409.436L411.237 71.0126Z" fill="#2466B4"/>
<path d="M461.219 71.5844C461.219 72.8711 461.412 75.1584 461.605 76.5881L462.055 79.3043H480.195C494.218 79.3043 497.563 79.3043 498.85 79.3043C498.85 76.8025 498.85 73.9433 498.85 73.5859V69.44H480.066L461.219 69.297V71.5844Z" fill="#2466B4"/>
<path d="M511.393 74.3007V79.3043L529.918 79.1614L548.058 79.3043L548.573 74.0862L548.766 69.297H530.047H511.393V74.3007Z" fill="#2466B4"/>
<path d="M562.917 69.297C562.917 70.0118 562.917 73.2285 562.917 75.3729V79.3043H578.935H594.373V74.3007V69.297H578.549C564.397 69.297 564.783 69.297 562.917 69.297Z" fill="#2466B4"/>
<path d="M600.034 71.9418C600.678 73.4429 601.707 75.7303 602.286 76.9455L603.444 79.3043H625.572H647.764V74.3007V69.297H623.32H598.941L600.034 71.9418Z" fill="#2466B4"/>
<path d="M365.372 69.2971C365.372 69.6545 365.372 72.5137 365.372 74.6581L365.372 78.2321L382.933 78.4466L400.108 78.5895V73.9433V69.2971H383.062C369.167 69.2971 366.98 69.2971 365.372 69.2971Z" fill="#2466B4"/>
<path d="M0 88.9542V94.3152H18.6546H37.3092V88.9542V83.5931H18.6546H0V88.9542Z" fill="#2466B4"/>
<path d="M47.5371 88.7397L49.5312 94.3152L68.0805 94.3152C78.437 94.3867 85.8755 94.3152 86.8404 94.3152C86.7118 93.9578 85.5539 91.0985 84.396 88.3823L82.3376 83.5931H64.0689H45.8003L47.5371 88.7397Z" fill="#2466B4"/>
<path d="M97.8395 87.6675C97.3892 89.9549 96.6179 93.6719 96.4893 94.3152C98.7407 94.3152 97.5822 94.3152 115.401 94.3152H134.377L134.827 91.0986L135.213 87.882H142.546H149.815L150.008 90.8842L150.201 93.9578L168.598 94.1723L186.996 94.3152L186.031 88.9542L185.001 83.5931H141.839H98.6114L97.8395 87.6675Z" fill="#2466B4"/>
<path d="M197.031 86.8097C197.288 88.5968 197.932 91.0271 198.446 92.1708L199.475 94.3152L239.422 94.1723L279.368 93.9578L280.526 91.456C281.105 90.0979 281.813 87.739 282.006 86.2379L282.456 83.5931H263.801H245.211L244.761 86.5238C244.118 90.8842 242.381 92.4567 238.779 91.9564C235.434 91.5275 234.276 90.3123 233.697 86.3094L233.311 83.5931H214.978H196.645L197.031 86.8097Z" fill="#2466B4"/>
<path d="M297.83 88.9542V94.3152H328.063H358.296V90.3838V86.4523H335.139C335.139 84.6653 335.139 84.9512 335.139 83.5931C334.174 83.5931 334.688 83.5931 316.484 83.5931H297.83V88.9542Z" fill="#2466B4"/>
<path d="M365.372 83.5931C365.372 84.3079 366.337 87.8105 367.045 90.1693L368.46 94.3152L408.406 94.1723L448.353 93.9578L449.06 91.456C449.446 90.0979 449.961 87.739 450.154 86.2379L450.54 83.5931H432.914H415.353L414.453 86.5238C413.295 90.5267 410.4 92.3852 405.962 91.9564C402.295 91.599 400.751 90.0264 400.044 86.0235L399.658 83.5931H382.676C367.302 83.5931 367.045 83.5931 365.372 83.5931Z" fill="#2466B4"/>
<path d="M462.827 85.7375C463.47 88.5968 463.148 87.1671 463.791 89.3116L465.721 94.3152H505.217H544.714L546 91.2416C546.708 89.5975 547.415 87.1671 547.673 85.8805L548.059 83.5931H529.726H511.393L511.007 86.4523C510.492 90.0264 508.948 91.5275 505.475 91.9564C501.808 92.4567 499.878 90.7412 499.364 86.5953L498.978 83.5931H480.774H462.505L462.827 85.7375Z" fill="#2466B4"/>
<path d="M562.854 83.5931C562.854 83.9505 562.854 87.1671 562.854 89.669L562.854 94.3152H579H594.374V88.9542V83.5931H579C569.544 83.5931 563.497 83.5931 562.854 83.5931Z" fill="#2466B4"/>
<path d="M605.309 83.5931C605.309 83.8076 606.466 86.4523 607.56 89.3116L609.425 94.3152H628.595H647.764V88.9542V83.5931H626.536C614.893 83.5931 605.952 83.5931 605.309 83.5931Z" fill="#2466B4"/>
<path d="M0 102.535V106.467H18.6546H37.3092V102.535V98.6041H18.6546H0V102.535Z" fill="#2466B4"/>
<path d="M52.2971 102.535L53.7123 106.467H72.8172H91.9221L90.3782 102.678L88.7701 98.9615L69.8582 98.747L50.9463 98.6041L52.2971 102.535Z" fill="#2466B4"/>
<path d="M93.9165 106.467C103.244 106.467 120.612 106.467 114.501 106.467L132.963 106.467L134.442 98.604C133.635 102.893 133.635 102.893 134.442 98.604L95.9109 98.6039L93.9165 106.467Z" fill="#2466B4"/>
<path d="M151.166 102.321L151.488 106.11L189.44 106.11C189.119 104.323 188.861 103.107 188.475 101.535L187.768 98.6041H169.306H150.78L151.166 102.321Z" fill="#2466B4"/>
<path d="M203.914 98.89C203.914 99.6763 211.118 103.608 214.849 104.894C225.013 108.397 228.229 108.826 240.579 108.826C250.55 108.754 253.38 108.54 258.205 107.182C265.538 105.18 268.433 103.894 272.357 100.963L275.444 98.604H239.679C219.995 98.604 203.914 98.747 203.914 98.89Z" fill="#2466B4"/>
<path d="M297.83 102.535V106.467H328.063H358.296V102.535V98.6041H328.063H297.83V102.535Z" fill="#2466B4"/>
<path d="M374.442 100.748C377.852 103.25 384.284 105.824 391.424 107.611C398.693 109.398 417.734 109.398 424.552 107.611C434.651 105.037 439.991 102.821 443.528 99.7477C444.686 98.747 441.341 98.6755 408.149 98.604H371.483L374.442 100.748Z" fill="#2466B4"/>
<path d="M471.511 100.034C474.856 103.036 479.487 105.037 488.557 107.325C497.241 109.541 513.902 109.469 522.329 107.253C529.405 105.395 534.679 103.107 538.153 100.463L540.662 98.6041H505.282H469.903L471.511 100.034Z" fill="#2466B4"/>
<path d="M562.854 102.535V106.467H578.646H594.374V102.535V98.6041H578.646H562.854V102.535Z" fill="#2466B4"/>
<path d="M612.835 102.535L614.572 106.467H631.168H647.764V102.535V98.6041H629.431H611.098L612.835 102.535Z" fill="#2466B4"/>
<path d="M3.08986 115.402L0.130859 118.619L12.6101 118.762L25.0894 118.976L23.5456 121.478C20.9082 125.91 9.90844 144.638 8.42893 147.354L6.94943 150.07H13.6394C20.9082 150.07 20.6509 150.142 28.949 144.352C35.2529 139.991 35.2529 139.991 38.9195 137.561C40.7207 136.417 44.3229 133.915 46.896 132.057C49.5333 130.198 51.8491 128.769 51.9777 128.912C52.1064 129.055 49.855 133.201 46.9603 138.204C43.1651 144.709 41.8142 147.568 42.1358 148.569C42.9078 151.428 50.8842 151.5 53.9719 148.64C56.4806 146.425 79.638 133.987 80.2169 134.63C80.3456 134.773 78.8661 137.132 76.9363 139.92C75.0065 142.636 73.0767 145.638 72.6908 146.567C71.1469 149.713 72.7551 150.07 89.4156 150.07C104.339 150.07 104.725 150.07 107.62 148.283L110.579 146.567L113.345 147.926C118.877 150.642 130.906 151.571 140.491 150.07C146.087 149.141 151.555 146.282 152.777 143.565C154.063 140.921 153.999 139.92 152.391 137.632L151.104 135.774H162.04C168.086 135.774 173.04 135.917 173.04 136.131C173.04 136.274 171.753 138.705 170.145 141.421C166.864 146.996 166.543 149.141 168.73 149.713C169.502 149.927 178.314 150.07 188.285 149.927C205.524 149.713 206.489 149.641 208.226 148.212C209.963 146.71 210.027 146.71 212.664 148.069C216.717 149.999 225.079 150.999 233.506 150.57C244.184 149.999 250.424 147.497 252.804 142.779C253.64 140.992 253.64 140.706 252.289 138.705C251.517 137.489 250.874 136.346 250.874 136.131C250.874 135.917 255.827 135.774 261.81 135.774C267.856 135.774 272.745 135.988 272.745 136.274C272.745 136.918 269.593 142.136 268.049 143.994C266.891 145.424 266.891 145.424 270.236 145.638C275.318 145.996 276.283 145.424 279.885 140.42L283.166 135.774H287.926C290.563 135.774 292.686 136.06 292.686 136.417C292.686 136.775 291.528 139.062 290.113 141.421C288.698 143.78 287.54 146.353 287.54 147.139C287.54 149.856 289.47 150.142 304.908 149.927C319.06 149.713 319.703 149.641 321.569 148.069C323.37 146.567 323.691 146.567 325.364 147.497C329.288 149.784 334.563 150.142 356.691 149.927C376.761 149.713 378.755 149.57 380.427 148.355C381.521 147.64 382.421 147.354 382.679 147.711C383.515 149.141 386.023 150.07 389.111 150.07C392.778 150.07 393.164 150.642 390.591 152.286C386.281 155.074 386.345 160.077 390.784 162.579C394.193 164.438 404.614 164.509 409.438 162.579C413.619 160.935 418.573 157.075 421.274 153.287L423.526 150.142L432.982 149.927C441.73 149.713 442.631 149.57 444.496 147.997C446.49 146.425 446.683 146.425 448.934 147.497C453.823 149.784 456.589 150.07 478.139 150.07C495.828 150.07 500.267 149.856 502.132 148.998C504.126 148.069 504.577 148.069 505.927 149.069C507.214 149.999 509.787 150.142 522.781 149.927C537.576 149.713 538.155 149.641 540.535 148.069C542.786 146.496 543.044 146.425 544.459 147.497C547.482 149.641 553.722 150.142 575.721 149.927C594.762 149.713 597.528 149.57 599.458 148.426C601.58 147.282 601.709 147.282 602.931 148.426C604.025 149.57 606.341 149.713 628.083 149.927C652.398 150.142 658.188 149.713 658.959 147.497C659.281 146.639 657.93 146.496 650.34 146.496C645.387 146.496 641.334 146.282 641.334 145.924C641.334 145.638 641.913 144.995 642.621 144.495C644.615 143.136 644.164 140.563 641.077 135.631C638.311 131.056 638.311 131.056 639.469 129.412C641.012 127.339 640.24 125.481 637.41 124.409C634.001 123.122 632.393 123.479 626.603 126.91C623.58 128.769 620.943 130.413 620.814 130.484C620.685 130.627 620.943 131.557 621.393 132.557C621.843 133.558 622.101 134.487 621.972 134.63C621.843 134.773 619.27 136.203 616.247 137.775L610.779 140.635L615.025 140.706C617.984 140.778 620.171 140.349 622.101 139.419C624.674 138.133 624.931 138.133 625.574 139.205C626.989 141.564 627.118 142.851 625.96 144.423L624.802 145.996L617.855 144.352C610.136 142.565 606.469 142.708 603.06 145.066C601.13 146.425 599.844 146.496 582.09 146.496C563.757 146.496 558.353 145.996 558.353 144.209C558.353 143.78 559.383 141.707 560.669 139.634L562.92 135.774H567.745C570.318 135.774 572.505 136.06 572.505 136.346C572.505 136.703 571.669 137.847 570.575 138.991C569.546 140.134 568.645 141.278 568.645 141.635C568.645 141.921 572.119 142.207 576.429 142.207C583.247 142.207 584.405 141.993 586.078 140.706C589.037 138.347 588.651 136.06 584.92 134.13C582.025 132.7 580.867 132.557 568.002 132.557C556.295 132.557 553.593 132.772 550.312 133.915C542.4 136.632 539.248 139.991 540.921 144.066C541.307 145.066 541.628 145.996 541.628 146.139C541.628 146.353 537.319 146.496 531.98 146.496C526.705 146.496 522.331 146.353 522.331 146.139C522.331 145.924 525.933 139.634 530.371 132.2C534.81 124.694 538.412 118.476 538.412 118.261C538.412 118.047 534.81 117.904 530.371 117.904H522.395L513.84 132.271L505.349 146.567L485.021 146.353C473.893 146.21 464.244 145.853 463.665 145.495C461.993 144.638 462.25 142.993 464.759 139.205C466.817 136.131 467.267 135.774 469.583 135.774C471.642 135.774 472.221 136.131 472.928 137.704C475.18 142.779 489.01 142.922 491.454 137.918C492.033 136.703 491.84 136.203 490.425 134.702C488.045 132.271 486.179 131.985 471.706 132.343C460.385 132.557 458.455 132.843 454.274 134.344C446.876 137.061 443.724 140.921 445.397 145.209C445.911 146.425 445.204 146.496 435.876 146.496C430.344 146.496 425.841 146.353 425.841 146.139C425.841 145.924 427.257 143.422 428.929 140.563C430.666 137.704 432.403 134.702 432.853 133.772L433.625 132.2H425.391H417.157L412.976 139.205L408.795 146.139L404.163 146.353C401.59 146.496 399.468 146.425 399.468 146.21C399.468 145.924 404.549 137.418 406.93 133.772L407.959 132.2H399.403H390.784L386.345 139.348L381.971 146.496L362.866 146.425C352.381 146.353 342.989 146.139 341.896 145.853C339.194 145.209 339.13 143.065 341.703 139.276C343.568 136.56 344.276 136.131 346.527 135.917C348.907 135.702 349.293 135.917 350.065 137.704C350.773 139.276 351.738 139.991 355.147 141.063C359.135 142.35 359.521 142.35 362.995 141.206C367.047 139.92 369.427 137.847 368.848 136.203C368.655 135.631 367.691 134.559 366.79 133.844C365.246 132.7 363.509 132.557 350.58 132.557C335.27 132.557 333.598 132.843 326.65 136.417C323.177 138.276 321.118 141.921 322.276 144.28C322.598 145.066 322.92 145.853 322.92 146.067C322.92 146.282 318.417 146.496 312.949 146.496C307.481 146.496 302.978 146.353 302.978 146.139C302.978 145.924 304.715 142.851 306.838 139.205L310.698 132.557L298.154 132.343C291.271 132.271 285.61 131.985 285.61 131.771C285.61 131.557 286.318 130.198 287.219 128.769C288.119 127.339 288.827 125.91 288.827 125.624C288.827 124.837 280.207 124.909 275.318 125.838C270.558 126.696 267.535 128.34 266.634 130.556C266.055 132.057 265.862 132.128 242.833 132.343C220.191 132.557 219.612 132.629 215.816 134.273C213.694 135.202 210.992 137.061 209.77 138.419C207.647 140.778 207.454 141.921 208.741 145.209C209.191 146.425 208.355 146.496 196.905 146.496C190.15 146.496 184.618 146.353 184.618 146.139C184.618 145.281 188.607 138.061 189.636 136.989C190.343 136.274 192.402 135.845 195.618 135.631C199.092 135.488 200.957 134.988 202.372 133.987L204.238 132.557L198.577 132.343C195.489 132.271 192.981 131.985 192.981 131.7C192.981 131.485 194.267 129.126 195.875 126.41C197.484 123.694 198.77 121.335 198.77 121.12C198.77 120.906 196.969 120.763 194.717 120.763C190.858 120.763 190.408 120.906 186.805 124.051C178.25 131.485 177.607 131.557 146.344 132.2C122.093 132.629 120.421 132.772 116.819 134.201C114.696 135.059 112.058 136.56 110.836 137.632C109.035 139.134 108.713 139.848 108.713 142.279C108.713 143.78 109.035 145.066 109.357 145.066C109.743 145.066 110 145.352 110 145.781C110 146.21 106.14 146.496 99.6434 146.496C90.8307 146.496 89.3512 146.353 89.6086 145.424C89.8659 144.852 92.5032 140.706 95.5266 136.274C98.5499 131.771 100.994 127.411 100.994 126.624C100.994 124.123 99.1931 123.265 93.9827 123.265C90.1232 123.265 88.3864 123.622 85.8776 124.98C79.831 128.197 64.3284 135.631 64.3284 135.274C64.3284 134.63 65.8722 131.771 69.2815 125.981C71.1469 122.836 72.6908 119.691 72.6908 119.119C72.6908 117.475 68.6382 116.26 64.7786 116.832C59.7612 117.546 57.4455 118.476 51.7848 122.193C48.9544 124.051 43.6797 127.482 40.0774 129.913C36.4108 132.271 33.4518 133.987 33.4518 133.701C33.4518 133.272 35.9605 128.769 41.8785 118.69C42.9078 116.903 43.744 115.045 43.744 114.544C43.744 112.614 40.2061 112.185 23.2883 112.185H6.11319L3.08986 115.402ZM139.59 136.775C139.59 137.346 139.268 138.061 138.947 138.276C138.561 138.562 137.274 140.492 136.052 142.636L133.801 146.496H130.198C126.596 146.496 124.152 145.638 124.152 144.28C124.152 143.422 127.947 137.132 128.976 136.346C129.362 136.06 131.871 135.774 134.637 135.774C138.496 135.774 139.59 135.988 139.59 136.775ZM238.781 136.203C239.231 136.632 234.664 144.423 233.185 145.781C232.027 146.853 224.822 146.425 223.793 145.281C223.085 144.495 223.729 142.922 226.945 138.061C228.489 135.845 228.617 135.774 233.506 135.774C236.208 135.774 238.588 135.917 238.781 136.203ZM403.327 155.788C401.912 158.147 400.561 160.077 400.368 160.077C399.275 160.077 397.538 158.433 397.538 157.29C397.538 155.074 401.783 151.571 404.485 151.5C405.9 151.5 405.836 151.714 403.327 155.788Z" fill="black"/>
</svg>
